# xmcd CD database file generated by OrangeCD 5.2
#
# Track frame offsets:
#	150
#	12487
#	29662
#	43670
#	62820
#	78075
#	88577
#	100660
#	114432
#	127797
#	142127
#
# Disc length: 2075 seconds
#
# Revision: 1
# Processed by: cddbd v1.5.1PL0 Copyright (c) Steve Scherf et al.
# Submitted via: OrangeCD 5.2
#
DISCID=8b08190b
DTITLE=Becky Hobbs - All Keyed Up
DYEAR=1989
DGENRE=Country
TTITLE0=They Always Look Better When They're Leavin'
TTITLE1=Mama Was A Working Man
TTITLE2=Do You Feel The Same Way Too
TTITLE3=She Broke Her Promise
TTITLE4=Cowgirl's Heart
TTITLE5=I'm-A-Gonna Get To You
TTITLE6=All Keyed Up
TTITLE7=A Woman Needs
TTITLE8=Jones On The Jukebox
TTITLE9=Old Flame Burns Blue
TTITLE10=Are There Any More Like You (Where You Came From)
EXTD=
EXTT0=
EXTT1=
EXTT2=
EXTT3=
EXTT4=
EXTT5=
EXTT6=
EXTT7=
EXTT8=
EXTT9=
EXTT10=
PLAYORDER=
